<mxfile host="Electron" agent="Mozilla/5.0 (Windows NT 10.0; Win64; x64) AppleWebKit/537.36 (KHTML, like Gecko) draw.io/26.2.2 Chrome/134.0.6998.178 Electron/35.1.2 Safari/537.36" version="26.2.2">
  <diagram name="Page-1" id="7-GtVGIxNzFbhlQL41d2">
    <mxGraphModel dx="2289" dy="1464" grid="1" gridSize="10" guides="1" tooltips="1" connect="1" arrows="1" fold="1" page="1" pageScale="1" pageWidth="827" pageHeight="1169" math="0" shadow="0">
      <root>
        <mxCell id="0" />
        <mxCell id="1" parent="0" />
        <mxCell id="bU7ixsE4y1rzFk96PXrl-1" value="Select Department" style="shape=parallelogram;perimeter=parallelogramPerimeter;whiteSpace=wrap;html=1;fixedSize=1;" parent="1" vertex="1">
          <mxGeometry x="364" y="990" width="120" height="60" as="geometry" />
        </mxCell>
        <mxCell id="bU7ixsE4y1rzFk96PXrl-3" value="Load books &amp;amp; courses" style="rounded=0;whiteSpace=wrap;html=1;" parent="1" vertex="1">
          <mxGeometry x="369" y="1080" width="120" height="60" as="geometry" />
        </mxCell>
        <mxCell id="bU7ixsE4y1rzFk96PXrl-30" style="edgeStyle=orthogonalEdgeStyle;rounded=0;orthogonalLoop=1;jettySize=auto;html=1;entryX=0.5;entryY=0;entryDx=0;entryDy=0;" parent="1" source="bU7ixsE4y1rzFk96PXrl-5" target="bU7ixsE4y1rzFk96PXrl-7" edge="1">
          <mxGeometry relative="1" as="geometry" />
        </mxCell>
        <mxCell id="bU7ixsE4y1rzFk96PXrl-5" value="Display two tables(Books , Courses)" style="shape=parallelogram;perimeter=parallelogramPerimeter;whiteSpace=wrap;html=1;fixedSize=1;" parent="1" vertex="1">
          <mxGeometry x="364" y="1180" width="120" height="60" as="geometry" />
        </mxCell>
        <mxCell id="p-vz_HWBzyqi1uQt-g_9-5" style="edgeStyle=orthogonalEdgeStyle;rounded=0;orthogonalLoop=1;jettySize=auto;html=1;" edge="1" parent="1" source="bU7ixsE4y1rzFk96PXrl-7">
          <mxGeometry relative="1" as="geometry">
            <mxPoint x="384" y="1300" as="targetPoint" />
          </mxGeometry>
        </mxCell>
        <mxCell id="p-vz_HWBzyqi1uQt-g_9-7" value="No" style="edgeLabel;html=1;align=center;verticalAlign=middle;resizable=0;points=[];" vertex="1" connectable="0" parent="p-vz_HWBzyqi1uQt-g_9-5">
          <mxGeometry x="-0.0888" y="-3" relative="1" as="geometry">
            <mxPoint as="offset" />
          </mxGeometry>
        </mxCell>
        <mxCell id="bU7ixsE4y1rzFk96PXrl-7" value="Add ?" style="rhombus;whiteSpace=wrap;html=1;" parent="1" vertex="1">
          <mxGeometry x="173" y="1260" width="80" height="80" as="geometry" />
        </mxCell>
        <mxCell id="p-vz_HWBzyqi1uQt-g_9-18" style="edgeStyle=orthogonalEdgeStyle;rounded=0;orthogonalLoop=1;jettySize=auto;html=1;entryX=0.25;entryY=0;entryDx=0;entryDy=0;" edge="1" parent="1" source="bU7ixsE4y1rzFk96PXrl-10" target="p-vz_HWBzyqi1uQt-g_9-17">
          <mxGeometry relative="1" as="geometry">
            <Array as="points">
              <mxPoint x="206" y="1490" />
              <mxPoint x="384" y="1490" />
            </Array>
          </mxGeometry>
        </mxCell>
        <mxCell id="bU7ixsE4y1rzFk96PXrl-10" value="Fills Add book/course&lt;div&gt;Form&lt;/div&gt;" style="rounded=0;whiteSpace=wrap;html=1;shape=parallelogram;perimeter=parallelogramPerimeter;fixedSize=1;" parent="1" vertex="1">
          <mxGeometry x="133" y="1390" width="146" height="70" as="geometry" />
        </mxCell>
        <mxCell id="bU7ixsE4y1rzFk96PXrl-34" style="edgeStyle=orthogonalEdgeStyle;rounded=0;orthogonalLoop=1;jettySize=auto;html=1;entryX=0.5;entryY=0;entryDx=0;entryDy=0;" parent="1" source="bU7ixsE4y1rzFk96PXrl-13" target="bU7ixsE4y1rzFk96PXrl-22" edge="1">
          <mxGeometry relative="1" as="geometry" />
        </mxCell>
        <mxCell id="bU7ixsE4y1rzFk96PXrl-13" value="Back to dashboared" style="rounded=0;whiteSpace=wrap;html=1;" parent="1" vertex="1">
          <mxGeometry x="354" y="1650" width="120" height="60" as="geometry" />
        </mxCell>
        <mxCell id="bU7ixsE4y1rzFk96PXrl-16" value="&lt;span style=&quot;font-size: 16px;&quot;&gt;Display Dashboard&lt;/span&gt;" style="shape=parallelogram;perimeter=parallelogramPerimeter;whiteSpace=wrap;html=1;fixedSize=1;" parent="1" vertex="1">
          <mxGeometry x="344" y="860" width="170" height="90" as="geometry" />
        </mxCell>
        <mxCell id="bU7ixsE4y1rzFk96PXrl-18" value="" style="ellipse;html=1;shape=endState;fillColor=#000000;strokeColor=none;" parent="1" vertex="1">
          <mxGeometry x="404" y="550" width="80" height="80" as="geometry" />
        </mxCell>
        <mxCell id="bU7ixsE4y1rzFk96PXrl-19" value="&lt;font style=&quot;font-size: 14px;&quot;&gt;Login&lt;/font&gt;" style="rounded=0;whiteSpace=wrap;html=1;" parent="1" vertex="1">
          <mxGeometry x="379" y="670" width="120" height="60" as="geometry" />
        </mxCell>
        <mxCell id="bU7ixsE4y1rzFk96PXrl-22" value="" style="ellipse;html=1;shape=endState;fillColor=#000000;strokeColor=#330000;gradientColor=none;" parent="1" vertex="1">
          <mxGeometry x="369" y="1750" width="90" height="90" as="geometry" />
        </mxCell>
        <mxCell id="bU7ixsE4y1rzFk96PXrl-23" style="edgeStyle=orthogonalEdgeStyle;rounded=0;orthogonalLoop=1;jettySize=auto;html=1;entryX=0.545;entryY=0.007;entryDx=0;entryDy=0;entryPerimeter=0;" parent="1" source="bU7ixsE4y1rzFk96PXrl-7" target="bU7ixsE4y1rzFk96PXrl-10" edge="1">
          <mxGeometry relative="1" as="geometry" />
        </mxCell>
        <mxCell id="p-vz_HWBzyqi1uQt-g_9-6" value="Yes" style="edgeLabel;html=1;align=center;verticalAlign=middle;resizable=0;points=[];" vertex="1" connectable="0" parent="bU7ixsE4y1rzFk96PXrl-23">
          <mxGeometry x="-0.2129" y="-1" relative="1" as="geometry">
            <mxPoint as="offset" />
          </mxGeometry>
        </mxCell>
        <mxCell id="bU7ixsE4y1rzFk96PXrl-25" style="edgeStyle=orthogonalEdgeStyle;rounded=0;orthogonalLoop=1;jettySize=auto;html=1;entryX=0.539;entryY=-0.022;entryDx=0;entryDy=0;entryPerimeter=0;" parent="1" source="bU7ixsE4y1rzFk96PXrl-18" target="bU7ixsE4y1rzFk96PXrl-19" edge="1">
          <mxGeometry relative="1" as="geometry" />
        </mxCell>
        <mxCell id="bU7ixsE4y1rzFk96PXrl-27" style="edgeStyle=orthogonalEdgeStyle;rounded=0;orthogonalLoop=1;jettySize=auto;html=1;entryX=0.542;entryY=0.028;entryDx=0;entryDy=0;entryPerimeter=0;" parent="1" source="bU7ixsE4y1rzFk96PXrl-16" target="bU7ixsE4y1rzFk96PXrl-1" edge="1">
          <mxGeometry relative="1" as="geometry" />
        </mxCell>
        <mxCell id="bU7ixsE4y1rzFk96PXrl-28" style="edgeStyle=orthogonalEdgeStyle;rounded=0;orthogonalLoop=1;jettySize=auto;html=1;entryX=0.456;entryY=0.017;entryDx=0;entryDy=0;entryPerimeter=0;" parent="1" source="bU7ixsE4y1rzFk96PXrl-1" target="bU7ixsE4y1rzFk96PXrl-3" edge="1">
          <mxGeometry relative="1" as="geometry" />
        </mxCell>
        <mxCell id="bU7ixsE4y1rzFk96PXrl-29" style="edgeStyle=orthogonalEdgeStyle;rounded=0;orthogonalLoop=1;jettySize=auto;html=1;entryX=0.536;entryY=-0.011;entryDx=0;entryDy=0;entryPerimeter=0;" parent="1" source="bU7ixsE4y1rzFk96PXrl-3" target="bU7ixsE4y1rzFk96PXrl-5" edge="1">
          <mxGeometry relative="1" as="geometry" />
        </mxCell>
        <mxCell id="bU7ixsE4y1rzFk96PXrl-35" value="&lt;font style=&quot;font-size: 1px;&quot;&gt;.&lt;/font&gt;" style="text;html=1;align=center;verticalAlign=middle;resizable=0;points=[];autosize=1;strokeColor=none;fillColor=none;" parent="1" vertex="1">
          <mxGeometry x="120" y="1288" width="20" height="30" as="geometry" />
        </mxCell>
        <mxCell id="bU7ixsE4y1rzFk96PXrl-36" value="&lt;font style=&quot;font-size: 1px;&quot;&gt;.&lt;/font&gt;" style="text;html=1;align=center;verticalAlign=middle;resizable=0;points=[];autosize=1;strokeColor=none;fillColor=none;" parent="1" vertex="1">
          <mxGeometry x="434" y="1200" width="20" height="30" as="geometry" />
        </mxCell>
        <mxCell id="bU7ixsE4y1rzFk96PXrl-37" value="&lt;font style=&quot;font-size: 1px;&quot;&gt;.&lt;/font&gt;" style="text;html=1;align=center;verticalAlign=middle;resizable=0;points=[];autosize=1;strokeColor=none;fillColor=none;" parent="1" vertex="1">
          <mxGeometry x="429" y="470" width="20" height="30" as="geometry" />
        </mxCell>
        <mxCell id="bU7ixsE4y1rzFk96PXrl-38" value="&lt;font style=&quot;font-size: 1px;&quot;&gt;.&lt;/font&gt;" style="text;html=1;align=center;verticalAlign=middle;resizable=0;points=[];autosize=1;strokeColor=none;fillColor=none;" parent="1" vertex="1">
          <mxGeometry x="203" y="1840" width="20" height="30" as="geometry" />
        </mxCell>
        <mxCell id="p-vz_HWBzyqi1uQt-g_9-1" value="Input Email &amp;amp;&amp;nbsp;&lt;div&gt;Password&lt;/div&gt;" style="shape=parallelogram;perimeter=parallelogramPerimeter;whiteSpace=wrap;html=1;fixedSize=1;" vertex="1" parent="1">
          <mxGeometry x="374" y="770" width="120" height="60" as="geometry" />
        </mxCell>
        <mxCell id="p-vz_HWBzyqi1uQt-g_9-3" style="edgeStyle=orthogonalEdgeStyle;rounded=0;orthogonalLoop=1;jettySize=auto;html=1;entryX=0.533;entryY=-0.006;entryDx=0;entryDy=0;entryPerimeter=0;" edge="1" parent="1" source="p-vz_HWBzyqi1uQt-g_9-1" target="bU7ixsE4y1rzFk96PXrl-16">
          <mxGeometry relative="1" as="geometry" />
        </mxCell>
        <mxCell id="p-vz_HWBzyqi1uQt-g_9-4" style="edgeStyle=orthogonalEdgeStyle;rounded=0;orthogonalLoop=1;jettySize=auto;html=1;entryX=0.536;entryY=-0.002;entryDx=0;entryDy=0;entryPerimeter=0;" edge="1" parent="1" source="bU7ixsE4y1rzFk96PXrl-19" target="p-vz_HWBzyqi1uQt-g_9-1">
          <mxGeometry relative="1" as="geometry" />
        </mxCell>
        <mxCell id="p-vz_HWBzyqi1uQt-g_9-9" style="edgeStyle=orthogonalEdgeStyle;rounded=0;orthogonalLoop=1;jettySize=auto;html=1;entryX=0.5;entryY=0;entryDx=0;entryDy=0;" edge="1" parent="1" source="p-vz_HWBzyqi1uQt-g_9-8" target="p-vz_HWBzyqi1uQt-g_9-10">
          <mxGeometry relative="1" as="geometry">
            <mxPoint x="424" y="1390" as="targetPoint" />
          </mxGeometry>
        </mxCell>
        <mxCell id="p-vz_HWBzyqi1uQt-g_9-12" value="Yes" style="edgeLabel;html=1;align=center;verticalAlign=middle;resizable=0;points=[];" vertex="1" connectable="0" parent="p-vz_HWBzyqi1uQt-g_9-9">
          <mxGeometry x="-0.198" y="2" relative="1" as="geometry">
            <mxPoint as="offset" />
          </mxGeometry>
        </mxCell>
        <mxCell id="p-vz_HWBzyqi1uQt-g_9-11" style="edgeStyle=orthogonalEdgeStyle;rounded=0;orthogonalLoop=1;jettySize=auto;html=1;" edge="1" parent="1" source="p-vz_HWBzyqi1uQt-g_9-8">
          <mxGeometry relative="1" as="geometry">
            <mxPoint x="554" y="1300" as="targetPoint" />
          </mxGeometry>
        </mxCell>
        <mxCell id="p-vz_HWBzyqi1uQt-g_9-13" value="No" style="edgeLabel;html=1;align=center;verticalAlign=middle;resizable=0;points=[];" vertex="1" connectable="0" parent="p-vz_HWBzyqi1uQt-g_9-11">
          <mxGeometry x="0.0204" y="-1" relative="1" as="geometry">
            <mxPoint as="offset" />
          </mxGeometry>
        </mxCell>
        <mxCell id="p-vz_HWBzyqi1uQt-g_9-8" value="Edit ?" style="rhombus;whiteSpace=wrap;html=1;" vertex="1" parent="1">
          <mxGeometry x="384" y="1260" width="80" height="80" as="geometry" />
        </mxCell>
        <mxCell id="p-vz_HWBzyqi1uQt-g_9-10" value="Edit inline table/ course row" style="rounded=0;whiteSpace=wrap;html=1;shape=parallelogram;perimeter=parallelogramPerimeter;fixedSize=1;" vertex="1" parent="1">
          <mxGeometry x="364" y="1400" width="120" height="60" as="geometry" />
        </mxCell>
        <mxCell id="p-vz_HWBzyqi1uQt-g_9-15" style="edgeStyle=orthogonalEdgeStyle;rounded=0;orthogonalLoop=1;jettySize=auto;html=1;" edge="1" parent="1" source="p-vz_HWBzyqi1uQt-g_9-14">
          <mxGeometry relative="1" as="geometry">
            <mxPoint x="594" y="1400" as="targetPoint" />
          </mxGeometry>
        </mxCell>
        <mxCell id="p-vz_HWBzyqi1uQt-g_9-14" value="Delete" style="rounded=0;whiteSpace=wrap;html=1;" vertex="1" parent="1">
          <mxGeometry x="554" y="1270" width="80" height="60" as="geometry" />
        </mxCell>
        <mxCell id="p-vz_HWBzyqi1uQt-g_9-16" value="Choose table/course to&amp;nbsp;&lt;div&gt;delete&lt;/div&gt;" style="rounded=0;whiteSpace=wrap;html=1;" vertex="1" parent="1">
          <mxGeometry x="534" y="1400" width="100" height="60" as="geometry" />
        </mxCell>
        <mxCell id="p-vz_HWBzyqi1uQt-g_9-21" style="edgeStyle=orthogonalEdgeStyle;rounded=0;orthogonalLoop=1;jettySize=auto;html=1;" edge="1" parent="1" source="p-vz_HWBzyqi1uQt-g_9-17" target="bU7ixsE4y1rzFk96PXrl-13">
          <mxGeometry relative="1" as="geometry" />
        </mxCell>
        <mxCell id="p-vz_HWBzyqi1uQt-g_9-17" value="Display Changes" style="shape=parallelogram;perimeter=parallelogramPerimeter;whiteSpace=wrap;html=1;fixedSize=1;" vertex="1" parent="1">
          <mxGeometry x="354" y="1540" width="120" height="60" as="geometry" />
        </mxCell>
        <mxCell id="p-vz_HWBzyqi1uQt-g_9-19" style="edgeStyle=orthogonalEdgeStyle;rounded=0;orthogonalLoop=1;jettySize=auto;html=1;entryX=0.561;entryY=-0.029;entryDx=0;entryDy=0;entryPerimeter=0;" edge="1" parent="1" source="p-vz_HWBzyqi1uQt-g_9-10" target="p-vz_HWBzyqi1uQt-g_9-17">
          <mxGeometry relative="1" as="geometry" />
        </mxCell>
        <mxCell id="p-vz_HWBzyqi1uQt-g_9-20" style="edgeStyle=orthogonalEdgeStyle;rounded=0;orthogonalLoop=1;jettySize=auto;html=1;entryX=0.807;entryY=0.014;entryDx=0;entryDy=0;entryPerimeter=0;" edge="1" parent="1" source="p-vz_HWBzyqi1uQt-g_9-16" target="p-vz_HWBzyqi1uQt-g_9-17">
          <mxGeometry relative="1" as="geometry">
            <Array as="points">
              <mxPoint x="584" y="1490" />
              <mxPoint x="451" y="1490" />
            </Array>
          </mxGeometry>
        </mxCell>
        <mxCell id="p-vz_HWBzyqi1uQt-g_9-22" value="&lt;font style=&quot;font-size: 24px;&quot;&gt;Figure 2.6 Manage Departments books and coursed Flowchart&lt;/font&gt;" style="text;strokeColor=none;align=center;fillColor=none;html=1;verticalAlign=middle;whiteSpace=wrap;rounded=0;" vertex="1" parent="1">
          <mxGeometry x="74.5" y="1890" width="679" height="30" as="geometry" />
        </mxCell>
        <mxCell id="p-vz_HWBzyqi1uQt-g_9-23" value="&lt;font style=&quot;font-size: 1px;&quot;&gt;.&lt;/font&gt;" style="text;html=1;align=center;verticalAlign=middle;resizable=0;points=[];autosize=1;strokeColor=none;fillColor=none;" vertex="1" parent="1">
          <mxGeometry x="690" y="1360" width="20" height="30" as="geometry" />
        </mxCell>
        <mxCell id="p-vz_HWBzyqi1uQt-g_9-24" value="&lt;font style=&quot;font-size: 1px;&quot;&gt;.&lt;/font&gt;" style="text;html=1;align=center;verticalAlign=middle;resizable=0;points=[];autosize=1;strokeColor=none;fillColor=none;" vertex="1" parent="1">
          <mxGeometry x="90" y="1350" width="20" height="30" as="geometry" />
        </mxCell>
      </root>
    </mxGraphModel>
  </diagram>
</mxfile>
